<?xml version="1.0" encoding="UTF-8" standalone="no"?>
<!--?xml version="1.0" encoding="utf-8"?-->

<!-- Generator: Adobe Illustrator 18.1.1, SVG Export Plug-In . SVG Version: 6.00 Build 0)  -->

<svg
   version="1.1"
   id="_x32_"
   x="0px"
   y="0px"
   viewBox="0 0 512 512"
   style="width: 256px; height: 256px; opacity: 1;"
   xml:space="preserve"
   sodipodi:docname="dir.svg"
   inkscape:version="1.4 (1:1.4+202410161351+e7c3feb100)"
   xmlns:inkscape="http://www.inkscape.org/namespaces/inkscape"
   xmlns:sodipodi="http://sodipodi.sourceforge.net/DTD/sodipodi-0.dtd"
   xmlns="http://www.w3.org/2000/svg"
   xmlns:svg="http://www.w3.org/2000/svg"><defs
   id="defs1" /><sodipodi:namedview
   id="namedview1"
   pagecolor="#ffffff"
   bordercolor="#000000"
   borderopacity="0.25"
   inkscape:showpageshadow="2"
   inkscape:pageopacity="0.0"
   inkscape:pagecheckerboard="0"
   inkscape:deskcolor="#d1d1d1"
   inkscape:zoom="0.77441406"
   inkscape:cx="120.73644"
   inkscape:cy="79.41488"
   inkscape:window-width="1920"
   inkscape:window-height="1016"
   inkscape:window-x="0"
   inkscape:window-y="0"
   inkscape:window-maximized="1"
   inkscape:current-layer="g1" />
<style
   type="text/css"
   id="style1">
	.st0{fill:#4B4B4B;}
</style>
<g
   id="g1">
	<path
   class="st0"
   d="m 447.50265,149.37279 c -3.81921,-4.13887 -9.70899,-5.66167 -15.05863,-3.89169 l -270.23431,89.24474 c -7.82151,2.6031 -14.1599,8.42727 -17.37487,16.01533 L 100.8827,354.34188 98.871633,209.15715 354.43108,123.4852 353.89703,84.706458 c -0.0381,-2.752635 -1.3931,-5.316828 -3.6445,-6.910579 -2.25063,-1.594515 -5.11465,-1.997339 -7.72385,-1.119212 L 200.42922,124.55863 c -3.09061,1.04826 -6.50699,0.26092 -8.82399,-2.04998 L 164.70982,95.755908 c -2.30404,-2.284199 -5.70745,-3.091374 -8.78585,-2.062951 L 66.587678,123.3555 c -3.559811,1.17796 -5.947768,4.52949 -5.895889,8.28385 l 4.086992,295.6588 c 0.03967,2.73357 1.37937,5.29013 3.618556,6.88464 2.231557,1.58842 5.094816,2.02405 7.704784,1.15813 L 373.91467,336.93955 c 2.34294,-0.78734 4.24263,-2.53139 5.21307,-4.80949 L 450.1706,164.70301 c 2.19951,-5.19171 1.15812,-11.18601 -2.66795,-15.33022 z"
   style="fill:#ffd42a;stroke-width:0.762926"
   id="path1"
   sodipodi:nodetypes="ccccccccccccccccccccccc" />
</g>
</svg>
