<?xml version="1.0" encoding="UTF-8" standalone="no"?>
<!--?xml version="1.0" encoding="utf-8"?-->

<!-- Generator: Adobe Illustrator 18.1.1, SVG Export Plug-In . SVG Version: 6.00 Build 0)  -->

<svg
   version="1.1"
   id="_x32_"
   x="0px"
   y="0px"
   viewBox="0 0 512 512"
   style="width: 256px; height: 256px; opacity: 1;"
   xml:space="preserve"
   sodipodi:docname="file.svg"
   inkscape:version="1.4 (1:1.4+202410161351+e7c3feb100)"
   xmlns:inkscape="http://www.inkscape.org/namespaces/inkscape"
   xmlns:sodipodi="http://sodipodi.sourceforge.net/DTD/sodipodi-0.dtd"
   xmlns="http://www.w3.org/2000/svg"
   xmlns:svg="http://www.w3.org/2000/svg"><defs
   id="defs4" /><sodipodi:namedview
   id="namedview4"
   pagecolor="#ffffff"
   bordercolor="#000000"
   borderopacity="0.25"
   inkscape:showpageshadow="2"
   inkscape:pageopacity="0.0"
   inkscape:pagecheckerboard="0"
   inkscape:deskcolor="#d1d1d1"
   inkscape:zoom="0.54759344"
   inkscape:cx="325.97177"
   inkscape:cy="203.61822"
   inkscape:window-width="1920"
   inkscape:window-height="1016"
   inkscape:window-x="0"
   inkscape:window-y="0"
   inkscape:window-maximized="1"
   inkscape:current-layer="g4" />
<style
   type="text/css"
   id="style1">
	.st0{fill:#4B4B4B;}
</style>
<g
   id="g4">
	<polygon
   class="st0"
   points="332.05,386.736 332.05,372.31 167.433,328.255 167.433,342.68 "
   style="fill:#1a1a1a"
   id="polygon1"
   transform="matrix(0.73606107,0,0,0.73606107,67.568234,67.568338)" />
	<polygon
   class="st0"
   points="332.05,319.493 332.05,305.068 167.433,261.012 167.433,275.437 "
   style="fill:#1a1a1a"
   id="polygon2"
   transform="matrix(0.73606107,0,0,0.73606107,67.568234,67.568338)" />
	<polygon
   class="st0"
   points="332.05,252.25 332.05,237.826 167.433,193.77 167.433,208.195 "
   style="fill:#1a1a1a"
   id="polygon3"
   transform="matrix(0.73606107,0,0,0.73606107,67.568234,67.568338)" />
	<polygon
   class="st0"
   points="167.433,126.535 167.433,140.96 281.041,171.324 281.041,156.954 "
   style="fill:#1a1a1a"
   id="polygon4"
   transform="matrix(0.73606107,0,0,0.73606107,67.568234,67.568338)" />
	<path
   class="st0"
   d="m 372.22612,209.42718 -0.93333,-1.32491 c 0,-0.006 -0.011,-0.0118 -0.011,-0.0228 l -66.77693,-95.28163 v -0.005 l -1.06876,-1.51261 c -1.14899,-1.64362 -2.83236,-2.82647 -4.766,-3.34392 L 296.87338,107.44756 148.9862,67.858516 c -2.55855,-0.687481 -5.31142,-0.136171 -7.40478,1.473594 -2.10366,1.614918 -3.34392,4.123414 -3.34392,6.773234 V 377.41766 c 0,3.86138 2.59314,7.24505 6.33528,8.24021 l 218.45114,58.48594 c 2.54825,0.68232 5.30112,0.13617 7.39374,-1.47875 2.1044,-1.61566 3.34392,-4.12342 3.34392,-6.77324 v -221.5794 c 7.4e-4,-1.74594 -0.54615,-3.45802 -1.53542,-4.88524 z m -73.77246,-72.56164 11.62388,16.5945 37.76214,53.88556 -49.38675,-13.2226 V 136.86554 Z M 354.99419,422.55587 157.01585,369.55211 V 89.441129 l 131.18963,35.122621 v 73.48908 c 0,2.31417 1.55751,4.34497 3.79882,4.94191 l 62.98989,16.86831 z"
   style="fill:#1a1a1a;stroke-width:0.736061"
   id="path4" />
</g>
</svg>
