<?xml version="1.0" encoding="UTF-8" standalone="no"?>
<svg
   width="75.320129mm"
   height="92.604164mm"
   viewBox="0 0 75.320129 92.604164"
   version="1.1"
   id="svg4"
   sodipodi:docname="pdf.svg"
   inkscape:version="1.4 (1:1.4+202410161351+e7c3feb100)"
   xmlns:inkscape="http://www.inkscape.org/namespaces/inkscape"
   xmlns:sodipodi="http://sodipodi.sourceforge.net/DTD/sodipodi-0.dtd"
   xmlns="http://www.w3.org/2000/svg"
   xmlns:svg="http://www.w3.org/2000/svg">
  <defs
     id="defs4" />
  <sodipodi:namedview
     id="namedview4"
     pagecolor="#ffffff"
     bordercolor="#000000"
     borderopacity="0.25"
     inkscape:showpageshadow="2"
     inkscape:pageopacity="0.0"
     inkscape:pagecheckerboard="0"
     inkscape:deskcolor="#d1d1d1"
     inkscape:document-units="mm"
     inkscape:zoom="2.2657143"
     inkscape:cx="142.33921"
     inkscape:cy="175"
     inkscape:window-width="1920"
     inkscape:window-height="1016"
     inkscape:window-x="0"
     inkscape:window-y="0"
     inkscape:window-maximized="1"
     inkscape:current-layer="g4" />
  <g
     transform="translate(53.548057 -183.975276) scale(1.4843)"
     id="g4">
    <path
       fill="#ff2116"
       d="M-23.40766 161.09299c-1.45669-1.45669.11934-3.45839 4.39648-5.58397l2.69124-1.33743 1.04845-2.29399c.57665-1.26169 1.43729-3.32036 1.91254-4.5748l.8641-2.28082-.59546-1.68793c-.73217-2.07547-.99326-5.19438-.52872-6.31588.62923-1.51909 2.69029-1.36323 3.50626.26515.63727 1.27176.57212 3.57488-.18329 6.47946l-.6193 2.38125.5455.92604c.30003.50932 1.1764 1.71867 1.9475 2.68743l1.44924 1.80272 1.8033728-.23533c5.72900399-.74758 7.6912472.523 7.6912472 2.34476 0 2.29921-4.4984914 2.48899-8.2760865-.16423-.8499666-.59698-1.4336605-1.19001-1.4336605-1.19001s-2.3665326.48178-3.531704.79583c-1.202707.32417-1.80274.52719-3.564509 1.12186 0 0-.61814.89767-1.02094 1.55026-1.49858 2.4279-3.24833 4.43998-4.49793 5.1723-1.3991.81993-2.86584.87582-3.60433.13733zm2.28605-.81668c.81883-.50607 2.47616-2.46625 3.62341-4.28553l.46449-.73658-2.11497 1.06339c-3.26655 1.64239-4.76093 3.19033-3.98386 4.12664.43653.52598.95874.48237 2.01093-.16792zm21.21809-5.95578c.80089-.56097.68463-1.69142-.22082-2.1472-.70466-.35471-1.2726074-.42759-3.1031574-.40057-1.1249.0767-2.9337647.3034-3.2403347.37237 0 0 .993716.68678 1.434896.93922.58731.33544 2.0145161.95811 3.0565161 1.27706 1.02785.31461 1.6224.28144 2.0729-.0409zm-8.53152-3.54594c-.4847-.50952-1.30889-1.57296-1.83152-2.3632-.68353-.89643-1.02629-1.52887-1.02629-1.52887s-.4996 1.60694-.90948 2.57394l-1.27876 3.16076-.37075.71695s1.971043-.64627 2.97389-.90822c1.0621668-.27744 3.21787-.70134 3.21787-.70134zm-2.74938-11.02573c.12363-1.0375.1761-2.07346-.15724-2.59587-.9246-1.01077-2.04057-.16787-1.85154 2.23517.0636.8084.26443 2.19033.53292 3.04209l.48817 1.54863.34358-1.16638c.18897-.64151.47882-2.02015.64411-3.06364z"
       id="path3" />
    <path
       fill="#2c2c2c"
       d="M-20.930423 167.83862h2.364986q1.133514 0 1.840213.2169.706698.20991 1.189489.9446.482795.72769.482795 1.75625 0 .94459-.391832 1.6233-.391833.67871-1.056548.97958-.65772.30087-2.02913.30087h-.818651v3.72941h-1.581322zm1.581322 1.22447v3.33058h.783664q1.049552 0 1.44838-.39184.405826-.39183.405826-1.27345 0-.65772-.265887-1.06355-.265884-.41282-.587747-.50378-.314866-.098-1.000572-.098zm5.50664-1.22447h2.148082q1.560333 0 2.4909318.55276.9375993.55276 1.4133973 1.6443.482791 1.09153.482791 2.42096 0 1.3994-.4338151 2.49793-.4268149 1.09153-1.3154348 1.76324-.8816233.67172-2.5189212.67172h-2.267031zm1.581326 1.26645v7.018h.657715q1.378411 0 2.001144-.9516.6227329-.95858.6227329-2.5539 0-3.5125-2.6238769-3.5125zm6.4722254-1.26645h5.30372941v1.26645H-4.2075842v2.85478h2.9807225v1.26646h-2.9807225v4.16322h-1.5813254z"
       font-family="Franklin Gothic Medium Cond"
       letter-spacing="0"
       style="line-height:125%;-inkscape-font-specification:'Franklin Gothic Medium Cond'"
       word-spacing="4.26000023"
       id="path4" />
  </g>
</svg>
