<svg xmlns="http://www.w3.org/2000/svg" version="1.1" xmlns:xlink="http://www.w3.org/1999/xlink" xmlns:svgjs="http://svgjs.dev/svgjs" width="1000" height="1000" preserveAspectRatio="none" viewBox="0 0 1000 1000"><g mask="url(&quot;#SvgjsMask1003&quot;)" fill="none"><path d="M0 0L412.15 0L0 294.64z" fill="rgba(255, 255, 255, .1)"></path><path d="M0 294.64L412.15 0L503.19 0L0 550.73z" fill="rgba(255, 255, 255, .075)"></path><path d="M0 550.73L503.19 0L672.39 0L0 797.62z" fill="rgba(255, 255, 255, .05)"></path><path d="M0 797.62L672.39 0L698.66 0L0 810.5z" fill="rgba(255, 255, 255, .025)"></path><path d="M1000 1000L650.69 1000L1000 974.81z" fill="rgba(0, 0, 0, .1)"></path><path d="M1000 974.81L650.69 1000L432.2800000000001 1000L1000 699.6299999999999z" fill="rgba(0, 0, 0, .075)"></path><path d="M1000 699.63L432.28 1000L247.30999999999997 1000L1000 372.54z" fill="rgba(0, 0, 0, .05)"></path><path d="M1000 372.53999999999996L247.30999999999995 1000L181.81999999999994 1000L1000 162.12999999999997z" fill="rgba(0, 0, 0, .025)"></path></g><defs><mask id="SvgjsMask1003"><rect width="1000" height="1000" fill="#ffffff"></rect></mask></defs></svg>