<?xml version="1.0" encoding="UTF-8" standalone="no"?>
<svg
   version="1.1"
   width="1000"
   height="1000"
   preserveAspectRatio="none"
   viewBox="0 0 1000 1000"
   id="svg8"
   sodipodi:docname="bg2.svg"
   inkscape:version="1.4 (1:1.4+202410161351+e7c3feb100)"
   xmlns:inkscape="http://www.inkscape.org/namespaces/inkscape"
   xmlns:sodipodi="http://sodipodi.sourceforge.net/DTD/sodipodi-0.dtd"
   xmlns="http://www.w3.org/2000/svg"
   xmlns:svg="http://www.w3.org/2000/svg">
  <sodipodi:namedview
     id="namedview8"
     pagecolor="#ffffff"
     bordercolor="#000000"
     borderopacity="0.25"
     inkscape:showpageshadow="2"
     inkscape:pageopacity="0.0"
     inkscape:pagecheckerboard="0"
     inkscape:deskcolor="#d1d1d1"
     inkscape:zoom="0.793"
     inkscape:cx="500"
     inkscape:cy="462.16898"
     inkscape:window-width="1920"
     inkscape:window-height="1016"
     inkscape:window-x="0"
     inkscape:window-y="0"
     inkscape:window-maximized="1"
     inkscape:current-layer="svg8" />
  <g
     mask="url(#SvgjsMask1003)"
     fill="none"
     id="g8"
     transform="matrix(-1,0,0,1,1000,0)">
    <path
       d="M 0,0 H 412.15 L 0,294.64 Z"
       fill="rgba(255, 255, 255, .1)"
       id="path1" />
    <path
       d="M 0,294.64 412.15,0 h 91.04 L 0,550.73 Z"
       fill="rgba(255, 255, 255, .075)"
       id="path2" />
    <path
       d="M 0,550.73 503.19,0 h 169.2 L 0,797.62 Z"
       fill="rgba(255, 255, 255, .05)"
       id="path3" />
    <path
       d="M 0,797.62 672.39,0 h 26.27 L 0,810.5 Z"
       fill="rgba(255, 255, 255, .025)"
       id="path4" />
    <path
       d="M 1000,1000 H 650.69 L 1000,974.81 Z"
       fill="rgba(0, 0, 0, .1)"
       id="path5" />
    <path
       d="M 1000,974.81 650.69,1000 H 432.28 L 1000,699.63 Z"
       fill="rgba(0, 0, 0, .075)"
       id="path6" />
    <path
       d="M 1000,699.63 432.28,1000 H 247.31 L 1000,372.54 Z"
       fill="rgba(0, 0, 0, .05)"
       id="path7" />
    <path
       d="M 1000,372.54 247.31,1000 H 181.82 L 1000,162.13 Z"
       fill="rgba(0, 0, 0, .025)"
       id="path8" />
  </g>
  <defs
     id="defs8">
    <mask
       id="SvgjsMask1003">
      <rect
         width="1000"
         height="1000"
         fill="#ffffff"
         id="rect8" />
    </mask>
  </defs>
</svg>
