<svg xmlns="http://www.w3.org/2000/svg" version="1.1" xmlns:xlink="http://www.w3.org/1999/xlink" xmlns:svgjs="http://svgjs.dev/svgjs" width="1440" height="560" preserveAspectRatio="none" viewBox="0 0 1440 560"><g mask="url(&quot;#SvgjsMask1080&quot;)" fill="none"><rect width="1440" height="560" x="0" y="0" fill="rgba(103, 167, 204, 1)"></rect><path d="M1512 560L0 560 L0 457.65Q72.76 410.41, 120 483.17Q173.91 417.08, 240 470.99Q246.29 405.28, 312 411.58Q379.54 359.12, 432 426.66Q528.67 403.34, 552 500.01Q570.5 446.51, 624 465.01Q672.49 393.5, 744 441.99Q766.1 392.09, 816 414.18Q843.46 369.64, 888 397.1Q942.87 379.97, 960 434.84Q982.37 385.21, 1032 407.58Q1097.08 352.66, 1152 417.74Q1200.42 346.16, 1272 394.58Q1360.47 363.05, 1392 451.52Q1444.47 383.99, 1512 436.46z" fill="rgba(255, 255, 255, 0.5)"></path><path d="M1488 560L0 560 L0 544.99Q46.69 519.68, 72 566.38Q96.75 471.13, 192 495.88Q258.65 442.53, 312 509.18Q377.77 502.95, 384 568.72Q398.95 511.67, 456 526.63Q500.81 451.44, 576 496.25Q671 471.25, 696 566.26Q769.64 519.9, 816 593.55Q822.38 527.93, 888 534.31Q957.17 483.48, 1008 552.65Q1059.47 532.12, 1080 583.59Q1089.3 472.89, 1200 482.19Q1287.92 498.11, 1272 586.03Q1261.26 503.29, 1344 492.56Q1383.38 459.94, 1416 499.32Q1487.61 498.92, 1488 570.53z" fill="rgba(255, 255, 255, 1)"></path></g><defs><mask id="SvgjsMask1080"><rect width="1440" height="560" fill="#ffffff"></rect></mask></defs></svg>