<?xml version="1.0" encoding="UTF-8" standalone="no"?>
<svg
   width="48"
   height="48"
   viewBox="0 0 47.999998 47.999998"
   version="1.1"
   id="svg2"
   sodipodi:docname="favicon.svg"
   inkscape:version="1.4 (1:1.4+202410161351+e7c3feb100)"
   xmlns:inkscape="http://www.inkscape.org/namespaces/inkscape"
   xmlns:sodipodi="http://sodipodi.sourceforge.net/DTD/sodipodi-0.dtd"
   xmlns="http://www.w3.org/2000/svg"
   xmlns:svg="http://www.w3.org/2000/svg">
  <defs
     id="defs2" />
  <sodipodi:namedview
     id="namedview2"
     pagecolor="#ffffff"
     bordercolor="#000000"
     borderopacity="0.25"
     inkscape:showpageshadow="2"
     inkscape:pageopacity="0.0"
     inkscape:pagecheckerboard="0"
     inkscape:deskcolor="#d1d1d1"
     inkscape:zoom="8.4586667"
     inkscape:cx="17.555958"
     inkscape:cy="10.462642"
     inkscape:window-width="1920"
     inkscape:window-height="1016"
     inkscape:window-x="0"
     inkscape:window-y="0"
     inkscape:window-maximized="1"
     inkscape:current-layer="svg2" />
  <path
     d="M 23.620532,0.91835069 C 22.162245,1.1568877 21.122886,2.2398672 21.04187,3.6052298 c -0.04944,0.8333908 0.213772,1.5162074 0.818956,2.1243236 0.296276,0.2977652 0.442159,0.4039972 0.790853,0.5761786 0.561969,0.2774662 0.95726,0.3594746 1.600381,0.3319129 0.865057,-0.037035 1.585991,-0.3643914 2.154366,-0.9782362 C 26.904205,5.121753 27.162319,4.4744372 27.160921,3.7671715 27.15844,2.479983 26.225899,1.3243327 24.921389,0.99169811 24.582394,0.90526905 23.926507,0.86827958 23.620532,0.91835069 M 11.77939,4.1450956 c -0.654488,0.1453867 -1.190655,0.4418889 -1.669939,0.923564 -0.5636834,0.5664353 -0.8110617,1.1524026 -0.8110617,1.9210619 0,0.7392932 0.2534681,1.315111 0.8334357,1.8932745 0.412297,0.4110793 0.789229,0.6479473 1.309247,0.8228804 0.328936,0.1106978 0.422718,0.1215691 1.060064,0.1229223 0.663781,0.0014 0.712093,-0.00456 0.954238,-0.1180956 0.212148,-0.099466 0.294653,-0.1753842 0.490291,-0.4510911 0.288338,-0.4064331 0.645106,-1.1256979 0.768524,-1.5494529 0.1923,-0.6601267 0.161852,-1.4414165 -0.08002,-2.0524645 C 14.393463,5.0496235 13.785212,4.3106009 13.415949,4.1774839 13.160586,4.0854614 12.138955,4.0652074 11.77939,4.1450956 m 23.140974,-0.03947 c -0.412883,0.074971 -0.497282,0.1217946 -0.800461,0.4441443 -0.35582,0.3783753 -0.562195,0.7084837 -0.711912,1.1390053 -0.32862,0.9449908 -0.236777,1.852947 0.295781,2.9235666 0.284999,0.572976 0.517717,0.9236993 0.685974,1.0337655 0.438461,0.286894 1.776622,0.2701134 2.492865,-0.031306 0.855178,-0.3598354 1.541559,-1.1212772 1.757315,-1.9495256 0.09058,-0.3477461 0.08963,-1.037284 -0.0019,-1.3921122 C 38.446047,5.5289983 37.838969,4.794757 37.127779,4.4465147 36.918518,4.3440268 36.625489,4.2280513 36.476629,4.1887161 36.213823,4.1192481 35.156195,4.0628166 34.920364,4.1056251 M 23.033617,7.642721 C 15.593321,8.0318322 9.2932919,12.59304 7.1130333,19.169272 c -1.3371694,4.033251 -0.9135046,8.566807 1.1501019,12.307074 2.2463888,4.071593 6.2170278,7.07374 10.9866398,8.306843 2.139074,0.552992 4.477846,0.723821 6.738985,0.49214 4.790272,-0.490742 9.218498,-2.856399 12.077018,-6.451776 1.874283,-2.357402 2.973231,-4.937959 3.378988,-7.934422 0.100548,-0.742315 0.114893,-2.868443 0.02427,-3.586174 C 40.912343,17.895075 38.772863,14.144613 35.251375,11.403513 31.847351,8.7538486 27.481872,7.4100933 23.033617,7.642721 M 5.1032419,11.728073 c -1.0568161,0.276564 -1.9320682,1.159801 -2.1425022,2.162035 -0.1343349,0.639918 -0.048628,1.278933 0.2571671,1.917137 0.2597382,0.542076 0.7585097,1.040442 1.2989167,1.297834 0.6322944,0.301149 1.0453585,0.362993 1.9816432,0.296503 0.4862311,-0.03451 0.4459487,0.0134 0.5892153,-0.701222 0.3912764,-1.951781 0.081512,-3.551981 -0.8759739,-4.52512 -0.3131925,-0.318335 -0.6090632,-0.519386 -0.7579684,-0.515056 -0.056341,0.0016 -0.2140427,0.03216 -0.3504978,0.06789 m 37.2911611,0.06821 c -0.324244,0.21481 -0.767261,0.723505 -0.970929,1.115052 -0.553398,1.063673 -0.645556,2.608886 -0.249633,4.184998 l 0.07059,0.281165 0.564811,0.03257 c 0.364527,0.02102 0.674878,0.01439 0.875388,-0.01872 1.158853,-0.191398 2.128112,-1.039675 2.427503,-2.124504 0.115615,-0.418973 0.125448,-1.103098 0.02161,-1.505562 -0.239666,-0.928932 -1.017166,-1.702553 -2.019536,-2.009385 -0.406072,-0.124321 -0.471165,-0.120306 -0.719806,0.04439 m -25.651206,7.490143 c -0.329387,0.05526 -0.670908,0.25437 -0.836142,0.487494 -0.116698,0.164603 -0.137358,0.238447 -0.151071,0.540497 -0.01985,0.437062 0.09559,0.742045 0.369579,0.976567 0.352167,0.301419 1.018789,0.385277 1.453551,0.182828 0.567292,-0.264159 0.82049,-1.023165 0.53346,-1.599164 -0.235289,-0.472112 -0.748089,-0.692379 -1.369377,-0.588222 m 13.807538,-0.0032 c -0.604417,0.121749 -1.043464,0.572074 -1.043464,1.070259 0,0.328935 0.117013,0.615919 0.343416,0.842322 0.537114,0.537114 1.500915,0.508289 2.014618,-0.06027 0.20493,-0.226854 0.325597,-0.60798 0.285901,-0.903129 -0.08205,-0.609921 -0.893972,-1.09146 -1.600471,-0.949186 m -28.1485794,3.60881 c -0.6715393,0.12008 -1.2225471,0.407922 -1.65370003,0.863749 -0.94900547,1.003272 -1.0026402,2.686564 -0.120306,3.77437 0.20105131,0.247874 0.57198353,0.522408 1.08063383,0.799829 0.3627224,0.197804 0.4251083,0.21684 0.7696066,0.234974 l 0.3749469,0.01976 -0.1836843,-0.284188 C 2.3001168,27.728816 2.1471969,26.925513 2.2798628,26.252801 2.3931769,25.678156 2.6582831,25.191835 3.0929094,24.761404 3.6494205,24.210215 4.2387711,23.962792 5.0096856,23.956702 l 0.3801345,-0.003 -0.3451298,-0.321379 C 4.6405578,23.256022 4.3936757,23.111673 3.9302698,22.980767 3.5397152,22.870475 2.771913,22.825862 2.4021536,22.892037 m 42.0660054,-0.0036 c -0.679659,0.123735 -1.049418,0.31008 -1.542732,0.777411 l -0.303855,0.287886 0.378376,0.003 c 0.769155,0.0061 1.359002,0.253965 1.915062,0.804702 0.437966,0.433724 0.692381,0.905881 0.812191,1.507185 0.133838,0.67172 -0.01592,1.454859 -0.388435,2.031173 l -0.183188,0.283466 0.338363,-0.0171 c 0.306697,-0.01547 0.387398,-0.04186 0.86181,-0.281481 0.863253,-0.436025 1.349484,-1.001468 1.556174,-1.809597 0.109435,-0.427996 0.11787,-1.048877 0.0198,-1.464874 -0.237229,-1.006474 -0.997723,-1.7759 -2.027294,-2.051021 -0.323612,-0.08647 -1.131247,-0.12626 -1.436275,-0.07073 M 18.279159,30.91215 c -0.225951,0.06523 -0.351084,0.416763 -0.255498,0.717867 0.01656,0.05228 0.242462,0.232131 0.51271,0.408282 1.292963,0.842864 2.631801,1.378535 4.091758,1.637145 0.82694,0.146515 2.304624,0.149041 3.135083,0.0054 1.473354,-0.254911 2.740153,-0.735098 4.156083,-1.575436 0.561157,-0.33304 0.670592,-0.439047 0.670592,-0.649616 0,-0.23759 -0.278594,-0.536934 -0.499719,-0.536934 -0.0789,0 -0.284999,0.103436 -0.546497,0.274219 -0.588358,0.384329 -1.852225,0.997768 -2.494849,1.210909 -0.937774,0.311072 -1.538627,0.414237 -2.57122,0.441437 -0.960959,0.02531 -1.5587,-0.03081 -2.283243,-0.214403 -1.073416,-0.272008 -2.213684,-0.808491 -3.017077,-1.419449 -0.136455,-0.103751 -0.288699,-0.209712 -0.338319,-0.235469 -0.127839,-0.06627 -0.431513,-0.100954 -0.559804,-0.06392 m -10.5442545,2.94134 c -0.9891977,0.09987 -1.9347749,0.739789 -2.3552369,1.59393 -0.2004649,0.407155 -0.2902321,0.799334 -0.2902321,1.267927 0,0.801183 0.2420555,1.377136 0.8257674,1.964908 0.4389117,0.441979 0.824369,0.668246 1.3807448,0.810566 0.5452338,0.139432 1.432485,0.113269 1.6117937,-0.04754 0.02084,-0.01872 -0.070506,-0.06897 -0.202991,-0.111736 -0.8669971,-0.279812 -1.560234,-0.999933 -1.8236712,-1.894447 -0.052823,-0.179444 -0.079708,-0.422672 -0.079708,-0.721746 0,-0.521687 0.077813,-0.836548 0.3218986,-1.302706 0.2938891,-0.561313 0.8280261,-1.036673 1.3976188,-1.24395 C 8.988219,33.998667 8.981588,34.004306 8.8021891,33.929064 8.599604,33.844078 8.1459868,33.811915 7.7349075,33.853461 m 32.0572405,-0.0011 c -0.308952,0.03352 -0.451091,0.07551 -0.451091,0.133207 0,0.01913 0.123419,0.08093 0.274264,0.137358 0.817512,0.305749 1.541874,1.050004 1.804139,1.853713 0.422762,1.295534 -0.381578,2.783368 -1.791464,3.313896 -0.170241,0.06405 -0.317703,0.124591 -0.327717,0.134606 -0.01,0.01 0.05535,0.04885 0.145161,0.08638 0.249002,0.104021 1.139817,0.09247 1.581661,-0.02053 0.70934,-0.181429 1.406051,-0.657916 1.791147,-1.224938 0.237409,-0.349641 0.339221,-0.596568 0.429349,-1.041389 0.38681,-1.908837 -1.347139,-3.601015 -3.455449,-3.372312 m -16.281005,7.535703 c -1.40145,0.274985 -2.396151,1.352416 -2.470356,2.675917 -0.08887,1.584909 1.119473,2.887928 2.81341,3.033811 0.293074,0.02526 0.627919,-0.02323 1.051945,-0.152288 0.03721,-0.01132 -0.05679,-0.0678 -0.208946,-0.125449 -0.871192,-0.330379 -1.621447,-1.139724 -1.842256,-1.987415 -0.218644,-0.839435 0.03658,-1.795252 0.66139,-2.477121 0.281797,-0.307509 0.857163,-0.720528 1.221149,-0.876515 0.117554,-0.05043 0.213772,-0.102533 0.213772,-0.115795 0,-0.03907 -1.221916,-0.01795 -1.440108,0.02485"
     stroke="none"
     fill="#fc0404"
     fill-rule="evenodd"
     id="path1"
     style="fill:#fc0404;stroke-width:0.0451091" />
</svg>
