<svg xmlns="http://www.w3.org/2000/svg" version="1.1" xmlns:xlink="http://www.w3.org/1999/xlink" xmlns:svgjs="http://svgjs.dev/svgjs" width="100" height="100" preserveAspectRatio="none" viewBox="0 0 100 100"><g mask="url(&quot;#SvgjsMask1042&quot;)" fill="none"><rect width="100" height="100" x="0" y="0" fill="rgba(63, 114, 159, 1)"></rect><path d="M0 0L33.4 0L0 39.57z" fill="rgba(255, 255, 255, .1)"></path><path d="M0 39.57L33.4 0L35.589999999999996 0L0 69.82z" fill="rgba(255, 255, 255, .075)"></path><path d="M0 69.82L35.589999999999996 0L66.63 0L0 77.5z" fill="rgba(255, 255, 255, .05)"></path><path d="M0 77.5L66.63 0L80.08 0L0 85.55z" fill="rgba(255, 255, 255, .025)"></path><path d="M100 100L54.85 100L100 56.44z" fill="rgba(0, 0, 0, .1)"></path><path d="M100 56.44L54.85 100L24.540000000000003 100L100 53.5z" fill="rgba(0, 0, 0, .075)"></path><path d="M100 53.5L24.540000000000006 100L19.510000000000005 100L100 50.11z" fill="rgba(0, 0, 0, .05)"></path><path d="M100 50.11L19.510000000000005 100L12.740000000000006 100L100 37.32z" fill="rgba(0, 0, 0, .025)"></path></g><defs><mask id="SvgjsMask1042"><rect width="100" height="100" fill="#ffffff"></rect></mask></defs></svg>