<svg xmlns="http://www.w3.org/2000/svg" version="1.1" xmlns:xlink="http://www.w3.org/1999/xlink" xmlns:svgjs="http://svgjs.dev/svgjs" width="100" height="100" preserveAspectRatio="none" viewBox="0 0 100 100"><g mask="url(&quot;#SvgjsMask1008&quot;)" fill="none"><rect width="100" height="100" x="0" y="0" fill="rgba(103, 167, 204, 1)"></rect><path d="M0 0L3.59 0L0 4.34z" fill="rgba(255, 255, 255, .1)"></path><path d="M0 4.34L3.59 0L20.11 0L0 53.56z" fill="rgba(255, 255, 255, .075)"></path><path d="M0 53.56L20.11 0L49.870000000000005 0L0 59.58z" fill="rgba(255, 255, 255, .05)"></path><path d="M0 59.58L49.870000000000005 0L61.010000000000005 0L0 61.91z" fill="rgba(255, 255, 255, .025)"></path><path d="M100 100L54.5 100L100 80.71000000000001z" fill="rgba(0, 0, 0, .1)"></path><path d="M100 80.71000000000001L54.5 100L24.85 100L100 48.07000000000001z" fill="rgba(0, 0, 0, .075)"></path><path d="M100 48.07L24.849999999999994 100L14.839999999999995 100L100 24.7z" fill="rgba(0, 0, 0, .05)"></path><path d="M100 24.700000000000003L14.83999999999999 100L5.339999999999989 100L100 14.970000000000002z" fill="rgba(0, 0, 0, .025)"></path></g><defs><mask id="SvgjsMask1008"><rect width="100" height="100" fill="#ffffff"></rect></mask></defs></svg>